<svg xmlns="http://www.w3.org/2000/svg" width="796" height="332" viewBox="0 0 796 332"><defs><style>.cls-1{opacity:0.44;}.cls-2{fill:#b8e3f4;}.cls-3{fill:#05a9e2;}.cls-4{fill:#ff8a0b;}.cls-5{fill:#fffffe;}.cls-10,.cls-11,.cls-14,.cls-23,.cls-25,.cls-26,.cls-27,.cls-28,.cls-31,.cls-32,.cls-6,.cls-7,.cls-9{fill:none;}.cls-28,.cls-6{stroke:#05a9e2;}.cls-13,.cls-14,.cls-18,.cls-26,.cls-27,.cls-28,.cls-31,.cls-32,.cls-6{stroke-miterlimit:10;}.cls-6{stroke-width:9px;}.cls-7{stroke:#8daab7;stroke-width:1.6px;}.cls-10,.cls-11,.cls-23,.cls-25,.cls-7,.cls-9{stroke-linecap:round;stroke-linejoin:round;}.cls-10,.cls-11,.cls-15,.cls-8{opacity:0.3;}.cls-10,.cls-11,.cls-27,.cls-31,.cls-9{stroke:#0476a8;}.cls-10,.cls-9{stroke-width:3px;}.cls-11,.cls-14,.cls-23,.cls-25,.cls-26,.cls-27,.cls-28{stroke-width:2px;}.cls-12{fill:#78caea;}.cls-13{fill:#3face8;stroke:#3face8;}.cls-14,.cls-18,.cls-32{stroke:#fff;}.cls-15,.cls-16,.cls-30{fill:#0476a8;}.cls-16{opacity:0.25;}.cls-17{fill:#8daab7;}.cls-18{fill:#fff;stroke-width:4px;}.cls-19{fill:#004a6e;}.cls-20{fill:#964221;}.cls-21{fill:#0094d2;}.cls-22{fill:#f18a21;}.cls-23{stroke:#113d56;}.cls-24{fill:#113d56;}.cls-25,.cls-26{stroke:#058bc4;}.cls-29{fill:#058bc4;}.cls-31{opacity:0.31;}</style></defs><g id="fill0"><g class="cls-1"><rect class="cls-2" x="447.94" y="79.36" width="66.27" height="66.27" rx="4.74"/><rect class="cls-2" x="529.31" y="79.36" width="66.27" height="66.27" rx="4.74"/><rect class="cls-2" x="610.67" y="79.36" width="66.27" height="66.27" rx="4.74"/><rect class="cls-2" x="692.04" y="79.36" width="66.27" height="66.27" rx="4.74"/></g><path class="cls-3" d="M570,194.69a141.6,141.6,0,0,1,7.07,12.84c2.4,5.09,2.83,8.28,2.27,9.84-1.62,4.49-7.88,8.08-12.64,8.83-2.88.46-7.17-.17-11-.21-4.25-.06-3.19-4.62-1.53-6,3.63-3.09,5.82-6.81,6.25-8.69,1.2-5.3.82-5.48,2.16-9.51,1.61-4.81,6.58-6.24,7.38-7.06"/><path class="cls-4" d="M473.17,218.08c-2-8.81-10.85-17.8-19.62-20l-26.24-6.49-8-11.54-31.56,50.16-12.24-29.67-2.83-16.25-16,16.25-20,4.24c-11.59,2.93-17.21,7.17-18.37,19.07L310.9,281.1H487.6Z"/><polygon class="cls-5" points="374.45 269.8 396.7 246.13 422.6 253.67 441.91 271.1 374.45 269.8"/><path class="cls-6" d="M540.14,275.4c3.54-.15,9.12-1,17.21-3.84,16-5.59,21.95-11.73,21.95-11.73"/><path class="cls-3" d="M593.8,237.3a90.14,90.14,0,0,1-30.38,26.85l46.27,15.26c9.24,3,24.11,3,31.7-3.63s11.89-16.84,11.89-16.84Z"/></g><g id="FILL1"><path class="cls-7" d="M558.83,94.15V94A10.43,10.43,0,0,1,564,84.71h0a10.42,10.42,0,0,1,11.7.84h0A12.52,12.52,0,0,0,591,85.7l1-.79"/><g class="cls-8"><path class="cls-9" d="M622.12,102.71a10.59,10.59,0,0,1,.22,16.48"/><path class="cls-9" d="M628.56,98a16.57,16.57,0,0,1,.25,25.9"/><path class="cls-9" d="M636.08,93.6a22.53,22.53,0,0,1,.29,35.23"/></g><line class="cls-7" x1="559.09" y1="96.65" x2="559.09" y2="102.74"/><line class="cls-7" x1="559.09" y1="110.98" x2="559.09" y2="113.37"/><rect class="cls-7" x="557.45" y="103.07" width="3.26" height="7.38" rx="1.57"/><rect class="cls-7" x="549.78" y="96.32" width="18.78" height="31.96" rx="8.98"/><line class="cls-10" x1="494.3" y1="90.38" x2="463.17" y2="129.51"/><line class="cls-11" x1="481.85" y1="95.36" x2="463.39" y2="118.71"/><line class="cls-11" x1="471.27" y1="98.61" x2="459.04" y2="114.17"/><path class="cls-12" d="M356.9,113.44a11.71,11.71,0,0,1,4.48,0c.14,0-.06,0,0,0,.3.22,3.44,1.49,5.7,2.39a3.32,3.32,0,0,1,2.09,3.38l-1.49,17.08a3.33,3.33,0,0,0,1.65,3.17l2.39,1.4a3.37,3.37,0,0,1,1.63,2.49l2.86,20.72c.32,2.7-1.65,3.06-5.18,3.06-2.24,0-4.82-2.1-6.83-4.48-2.35-2.78-4.78-12.33-6.12-23.78C357,129.65,356.9,113.44,356.9,113.44Z"/><path class="cls-12" d="M377.63,172l12.36-.71A46.66,46.66,0,0,1,387.87,191c-2.8,8.4-7.42,11.66-7.42,11.66l-6-30.38Z"/><path class="cls-13" d="M509.5,185.8l-2.82,8.66s5.05-1.44,7.07-3.46,5.48-4.91,5.48-4.91l-5-2.35A3.47,3.47,0,0,0,509.5,185.8Z"/><path class="cls-12" d="M347.41,232.13,329.77,79.45a15.7,15.7,0,0,0-15.5-13.9L111.12,64.32a13.53,13.53,0,0,0-12.81,8.92l.36.2a1.61,1.61,0,0,1-.8,3h-.19l1,.56a1.61,1.61,0,0,1-1,3,.86.86,0,0,0,0,.16L122.1,229.85a14,14,0,0,0,13.75,11.77l201.91,1.27A9.65,9.65,0,0,0,347.41,232.13Z"/><path class="cls-14" d="M100.46,71.52H310.84A11.83,11.83,0,0,1,322.58,82l9.13,77.17"/><circle class="cls-4" cx="78.66" cy="251.29" r="1.62"/><circle class="cls-4" cx="75.82" cy="256.56" r="1.62"/><circle class="cls-4" cx="81.9" cy="256.56" r="1.62"/><circle class="cls-4" cx="78.66" cy="261.71" r="1.62"/><circle class="cls-4" cx="81.9" cy="266.98" r="1.62"/><circle class="cls-4" cx="78.66" cy="272.11" r="1.62"/><circle class="cls-4" cx="81.9" cy="277.38" r="1.62"/><circle class="cls-4" cx="84.65" cy="251.29" r="1.62"/><circle class="cls-4" cx="90.73" cy="251.29" r="1.62"/><circle class="cls-4" cx="96.81" cy="251.29" r="1.62"/><circle class="cls-4" cx="102.89" cy="251.29" r="1.62"/><circle class="cls-4" cx="108.97" cy="251.29" r="1.62"/><circle class="cls-4" cx="115.05" cy="251.29" r="1.62"/><circle class="cls-4" cx="121.13" cy="251.29" r="1.62"/><circle class="cls-4" cx="127.21" cy="251.29" r="1.62"/><circle class="cls-4" cx="87.89" cy="256.56" r="1.62"/><circle class="cls-4" cx="93.97" cy="256.56" r="1.62"/><circle class="cls-4" cx="100.06" cy="256.56" r="1.62"/><circle class="cls-4" cx="106.14" cy="256.56" r="1.62"/><circle class="cls-4" cx="112.22" cy="256.56" r="1.62"/><circle class="cls-4" cx="118.3" cy="256.56" r="1.62"/><circle class="cls-4" cx="124.38" cy="256.56" r="1.62"/><circle class="cls-4" cx="84.65" cy="261.71" r="1.62"/><circle class="cls-4" cx="90.73" cy="261.71" r="1.62"/><circle class="cls-4" cx="96.81" cy="261.71" r="1.62"/><circle class="cls-4" cx="102.89" cy="261.71" r="1.62"/><circle class="cls-4" cx="108.97" cy="261.71" r="1.62"/><circle class="cls-4" cx="115.05" cy="261.71" r="1.62"/><circle class="cls-4" cx="121.13" cy="261.71" r="1.62"/><circle class="cls-4" cx="127.21" cy="261.71" r="1.62"/><circle class="cls-4" cx="87.89" cy="266.98" r="1.62"/><circle class="cls-4" cx="93.97" cy="266.98" r="1.62"/><circle class="cls-4" cx="100.06" cy="266.98" r="1.62"/><circle class="cls-4" cx="106.14" cy="266.98" r="1.62"/><circle class="cls-4" cx="112.22" cy="266.98" r="1.62"/><circle class="cls-4" cx="118.3" cy="266.98" r="1.62"/><circle class="cls-4" cx="124.38" cy="266.98" r="1.62"/><circle class="cls-4" cx="84.65" cy="272.11" r="1.62"/><circle class="cls-4" cx="90.73" cy="272.11" r="1.62"/><circle class="cls-4" cx="96.81" cy="272.11" r="1.62"/><circle class="cls-4" cx="102.89" cy="272.11" r="1.62"/><circle class="cls-4" cx="108.97" cy="272.11" r="1.62"/><circle class="cls-4" cx="115.05" cy="272.11" r="1.62"/><circle class="cls-4" cx="121.13" cy="272.11" r="1.62"/><circle class="cls-4" cx="87.89" cy="277.38" r="1.62"/><circle class="cls-4" cx="93.97" cy="277.38" r="1.62"/><circle class="cls-4" cx="100.06" cy="277.38" r="1.62"/><circle class="cls-4" cx="106.14" cy="277.38" r="1.62"/><circle class="cls-4" cx="112.22" cy="277.38" r="1.62"/><circle class="cls-4" cx="118.3" cy="277.38" r="1.62"/><path class="cls-7" d="M507.93,111.6c0-.85-11.85,17-26.47,17s-26.47-17-26.47-17,11.85-17,26.47-17S507.93,112.45,507.93,111.6Z"/><path class="cls-7" d="M650.58,98.32,654,94.8a10.32,10.32,0,0,1,11.89-.41h0a10.32,10.32,0,0,1,3.67,13l-6.46,13.67a10.3,10.3,0,0,1-13.15,5.17l-1.61-.64"/><path class="cls-7" d="M663.83,99.26h0a6.21,6.21,0,0,0-7.8.71,33.34,33.34,0,0,0-4.28,5.36,5.39,5.39,0,0,1,4.28,5.52,5.68,5.68,0,0,1-5.78,5.57"/><path class="cls-15" d="M560.58,87.79a24.47,24.47,0,1,0,24.47,24.47A24.5,24.5,0,0,0,560.58,87.79Zm20.77,24.47a20.66,20.66,0,0,1-4.85,13.31L547.27,96.34a20.76,20.76,0,0,1,34.08,15.92Zm-41.54,0A20.68,20.68,0,0,1,544.65,99l29.24,29.24a20.76,20.76,0,0,1-34.08-15.93Z"/><circle class="cls-7" cx="716.63" cy="108.74" r="2.27"/><path class="cls-7" d="M746.77,137.33V104.2a18.7,18.7,0,0,0-18.64-18.64h0A18.7,18.7,0,0,0,710,100l-6.83,22.57,6.27.51v10.51h0a5.15,5.15,0,0,0,1.64,3.52"/><path class="cls-16" d="M742.7,107.1v-2.68c0-7.25-5.2-13.7-12.39-14.63a14.2,14.2,0,0,0-12.82,5,4.16,4.16,0,0,0,2.25,6.69C726.94,103.22,736.57,105.59,742.7,107.1Z"/><path class="cls-17" d="M488.53,103.18l-1,1.24A8.87,8.87,0,0,1,476.13,118l-1,1.24a10.48,10.48,0,0,0,13.43-16.06Z"/><path class="cls-17" d="M483.9,108.72a3.25,3.25,0,0,1,.82,2.16,3.3,3.3,0,0,1-3.3,3.3,3.23,3.23,0,0,1-1.69-.48L478.68,115a4.85,4.85,0,0,0,2.74.84,4.91,4.91,0,0,0,3.53-8.34Z"/></g><g id="fill2"><path class="cls-18" d="M227.79,107,221,111.23l0,0L213.44,107,202,114.18l1.51,14.58,12.82,7.16,6.8-4.25,7.59,4.25,11.37-7.16-1.47-14.58Zm6.57,17.61-4.52,2.84-7.55-4.18-6.69,4.19-5.15-2.85-.64-6.33,4.73-2.76,7.37,4.1,6.68-4.2,5.13,2.86Z"/><polygon class="cls-19" points="223.16 131.67 215.6 127.47 222.28 123.28 229.84 127.47 223.16 131.67"/><polygon class="cls-20" points="221.04 111.23 214.36 115.43 221.91 119.63 228.59 115.43 221.04 111.23"/><polygon class="cls-21" points="227.79 107.01 221.04 111.23 233.72 118.29 234.36 124.62 223.16 131.67 230.75 135.92 242.12 128.76 240.65 114.19 227.79 107.01"/><polygon class="cls-22" points="210.45 124.62 209.81 118.29 221.04 111.23 213.44 107.01 202.03 114.19 203.54 128.76 216.36 135.92 223.16 131.67 210.45 124.62"/></g><g id="lne"><path class="cls-23" d="M355.72,103.78a119.23,119.23,0,0,0,3.47,58.87A13.44,13.44,0,0,0,371.46,172a109.5,109.5,0,0,0,12.17-.38"/><ellipse class="cls-24" cx="360.69" cy="123.79" rx="1.81" ry="3.05"/><ellipse class="cls-24" cx="387.87" cy="123.92" rx="1.81" ry="3.05"/><ellipse class="cls-24" cx="537.33" cy="201.88" rx="2.82" ry="1.67" transform="translate(65.16 528.28) rotate(-55.25)"/><path class="cls-23" d="M351.79,113a19.47,19.47,0,0,1,14.88,3.5L365,135.25a5.38,5.38,0,0,0,4.8,5.83l4.63.5"/><path class="cls-23" d="M415.77,93.19l.12.06a11.49,11.49,0,0,1,5.83,11.7c-.55,4.07-1.54,9-2.68,14.08"/><path class="cls-23" d="M353.06,98.84A16.18,16.18,0,0,1,347.13,88c-.12-1.49-.42-5.2,1.7-7.54s5.8-1.93,9.32-1.41a23.45,23.45,0,0,1,8.9,3.29,11.61,11.61,0,0,1,6.78-5.65c4.24-1.12,5.86,4.71,11.44,4.71,2.12,0,6.55-2,10.17-.94,5.51,1.65,3.82,9,3.82,9"/><path class="cls-23" d="M359.49,95.07s3.3-2.83,6.6-1.41a20,20,0,0,1,6.12,4.71S379.29,94,384,94.6c10.84,1.41,15.55,7.53,15.55,7.53"/><path class="cls-23" d="M365.62,152.06a29,29,0,0,0,9.89.82,41,41,0,0,0,10.36-1.76"/><path class="cls-24" d="M419.49,117.34a7.76,7.76,0,0,1-2.93-6.22,57.32,57.32,0,0,0-.31-7.34,40.79,40.79,0,0,0-4.71-14.48,10.93,10.93,0,0,0-10.6-5.83,47.16,47.16,0,0,1,9.42,19.84,60.7,60.7,0,0,1,1,6.64,8.07,8.07,0,0,1-3.56,7.37c-3.65,2.51-6.63,7.16-7.77,12.86-1.91,9.48,2,18.26,8.65,19.61s13.66-5.26,15.56-14.74C425.69,127.64,423.65,120.68,419.49,117.34Z"/><path class="cls-23" d="M192.86,277a16.16,16.16,0,0,1-5.49-13.41l6.29-101.78,60.87,1L252.72,263.1a17.65,17.65,0,0,0,3.7,11"/><path class="cls-23" d="M232.66,207.46c-.91,8-5.51,14-11,14-6.19,0-11.2-7.59-11.2-16.95s5-16.94,11.2-16.94c3.1,0,5.9,1.89,7.93,5"/><polyline class="cls-23" points="407.2 200.65 416.62 217.99 424.96 189.26"/><path class="cls-23" d="M420.25,175.14,425,189.26l32.22,4.79a22.87,22.87,0,0,1,19.35,17.82l14.26,54.33"/><polyline class="cls-23" points="364.2 205.75 372.21 192.09 388.61 223.33 414.95 179.08 410.24 152.91"/><line class="cls-23" x1="447.56" y1="237.3" x2="450.86" y2="266.5"/><path class="cls-23" d="M377.86,178.43l-5.2.5a7.91,7.91,0,0,0-6.54,4.77l-5.21,12.16-16.49,4"/><path class="cls-23" d="M383,268.57l9.79-13.26a8.26,8.26,0,0,1,11.43-1.85l1.39,1c-2-1,3.76-.06,13.3,5.65,4.46,2.66,10.6,7.42,10.6,7.42"/><line class="cls-23" x1="388.69" y1="269.98" x2="405.65" y2="254.44"/><line class="cls-23" x1="399.88" y1="270.33" x2="410.7" y2="261.5"/><line class="cls-23" x1="409.95" y1="270.68" x2="417.42" y2="264.8"/><line class="cls-23" x1="463.58" y1="281.1" x2="777.72" y2="281.1"/><path class="cls-23" d="M51.24,281.1H88.73l-7.07-37.44h67.82l-6.93,37.42L281.17,281l6.57-8.45a11.41,11.41,0,0,1,6.63-2.12H449.31a11.42,11.42,0,0,1,10,5.9l4.28,4.75"/><line class="cls-23" x1="80.2" y1="257.79" x2="121.22" y2="257.79"/><path class="cls-23" d="M504.81,197.92a33,33,0,0,0,.57,9.52c2.31,8.08,21.73,17.91,28.28,26,3.57,4.4,8.81,26.9,10,29.38"/><path class="cls-23" d="M580,225.9s.42,9.64,13.54,16.85c7.29,4,51.25,15.93,64.74,19.16,15.7,3.76,23.85,10.63,27.52,14.76"/><path class="cls-23" d="M512.4,191.3c-2.31,2.17-7.07,3.93-7.07,3.93a71,71,0,0,1,2.21-8.66,2.84,2.84,0,0,1,3.9-1.7l9.8,4.54a23.43,23.43,0,0,0,16.21.94c11.62-3.27,19.55-.18,22.08,1.49,8.82,5.84,11,16.34,11,16.34"/><path class="cls-23" d="M510.49,218.28a31.36,31.36,0,0,0,8.49,1.77,31.68,31.68,0,0,0,7.29-.37"/><path class="cls-23" d="M703.75,275.43a23.7,23.7,0,0,0,.82-9.95c-1.38-10.35-9.31-16-10.71-17"/><path class="cls-23" d="M713.69,275.47a27.82,27.82,0,0,0-.3-11.25c-2.8-11.35-14.13-16.11-15.54-16.8"/><path class="cls-25" d="M108.46,243.66c-19.07-21.19-35.27-70-38.15-91.13-2.11-15.54.71-43.1.71-43.1"/><path class="cls-25" d="M119,242.05s-9.82-21.65-8.37-47.13c2.12-37.09,9.12-73,5.3-89C111.27,86.53,101,76.06,101,76.06"/></g><g id="Layer_3" data-name="Layer 3"><path class="cls-3" d="M104.11,84.12c-7.43-11.69-7.81-26.33-1-37.68a35.05,35.05,0,0,1,18.66-14.71,5,5,0,0,1,6.42,5.77,31.16,31.16,0,0,1-2.94,8c-5.07,9.47-12.39,10.88-17.43,19.78C105.71,69.11,103.54,75.07,104.11,84.12Z"/><path class="cls-3" d="M92.75,215.55a28,28,0,0,1-7.25-28.61,27.32,27.32,0,0,1,11.69-14.46,3.87,3.87,0,0,1,5.9,3.29,24.19,24.19,0,0,1-.86,6.62c-2.22,8.11-7.57,10.45-9.87,18.12C91.37,203.81,90.74,208.74,92.75,215.55Z"/><path class="cls-26" d="M117.68,119.56c-3.53-15-.49-23.09,2.91-27.65,3.09-4.15,6.53-5.49,12.49-12a80.42,80.42,0,0,0,8.48-11.74,2.34,2.34,0,0,1,4.33,1.08,88.47,88.47,0,0,1-2.82,23.08c-1.64,6.19-3.66,13.82-10.83,20A33.58,33.58,0,0,1,117.68,119.56Z"/><path class="cls-27" d="M99.2,78.3c.43-2.2,1.07-18.16-8.92-31.12A37.86,37.86,0,0,0,64.81,33,73.64,73.64,0,0,1,71,42.82c5.31,10,5.23,14.93,8.72,21.08S89.15,74.61,99.2,78.3Z"/><path class="cls-28" d="M70.89,113.52a47.32,47.32,0,0,0-11.37-12.6c-5.86-4.49-9.52-5-12.83-7.49-4.88-3.69-9.42-12-7.28-32.46a94.12,94.12,0,0,1,10.85,7.35C53.1,70.55,60,76,64.3,82,72.13,93,71.72,106.48,70.89,113.52Z"/><path class="cls-3" d="M95.31,148.67c-4-5.81-8.58-12.36-9.29-13.65-1.42-2.55-11.46-20.58-8.33-23s18.76,9.11,27.31,25.35c5.81,11,8.37,24.36,5.58,25.77S99.35,154.49,95.31,148.67Z"/><path class="cls-29" d="M79.69,171.64c-.9-2-4.74-18.4,1.89-33.39,5-11.41,11.07-18.72,13.4-16.25s1.68,19.82-3,32.16A44.37,44.37,0,0,1,79.69,171.64Z"/><path class="cls-12" d="M72.88,157.43c-4.18-16.73-9.3-29.83-26.11-36.57a55.61,55.61,0,0,0-21.67-4.24c1.71,2.32,5.18,5.65,7.54,10.83,5.18,14.6,6.59,17,12.71,21.19A51.38,51.38,0,0,0,72.88,157.43Z"/><path class="cls-28" d="M109.7,198.86s1.65-31.18,18.22-38c6.09-2.51,14.26-2.45,20.8-1.7a3.24,3.24,0,0,1,1,6.27c-8.86,4-19.34,10-25.81,16.86C117.18,189.35,109.7,198.86,109.7,198.86Z"/><path class="cls-30" d="M108.37,190.59C107.32,185,105.94,173,112,160.76c4.21-8.55,12.42-18,15.55-16.51,3.78,1.77,1.07,19.83-7.78,33.6A55.52,55.52,0,0,1,108.37,190.59Z"/><path class="cls-28" d="M93.63,226s-30.8-3.36-42.73-16.74c-5.24-5.88-8.66-15.33-10.55-21.94a2.46,2.46,0,0,1,3.91-2.58,60.49,60.49,0,0,0,9.67,6.84c11.29,5.59,14.82,4.22,22.42,9.66C92.51,212.81,93.63,226,93.63,226Z"/><path class="cls-31" d="M119.55,115c3.83-5,9-7.83,12.9-14a75.07,75.07,0,0,0,8.74-22.84"/><path class="cls-32" d="M96.45,74.37A65,65,0,0,0,86.11,52.6a64.42,64.42,0,0,0-14-14"/><path class="cls-32" d="M47.27,75a22.6,22.6,0,0,0,5.54,7.79c3,2.75,5.75,3.57,7.54,4.55,3.56,2,7.64,6.83,9.05,20.15"/><path class="cls-32" d="M34.4,124.74a56.64,56.64,0,0,1,33.91,27.79"/></g></svg>